<svg id="Layer_1" data-name="Layer 1" xmlns="http://www.w3.org/2000/svg" viewBox="0 0 655.87 669.17"><path d="M1007.77,187.88v7.55a27.88,27.88,0,0,0,27.88,27.88H1082a27.88,27.88,0,0,1,24.27,41.6l-8.63,15.28a27.88,27.88,0,0,1-24.27,14.16H878.14a27.88,27.88,0,0,0-27.88,27.88v9.1a27.88,27.88,0,0,0,27.88,27.88h380.27a27.87,27.87,0,0,1,27.87,27.32l2,99a27.89,27.89,0,0,0,27.88,27.32h0a29,29,0,0,0,29-29V322.23a27.89,27.89,0,0,0-27.89-27.88H1207.37c-22.12,0-35.43-24.52-23.39-43.07l31.32-48.22c12-18.54-1.27-43.06-23.39-43.06H1035.65A27.88,27.88,0,0,0,1007.77,187.88Z" transform="translate(-689.31 -160)" style="fill:#ae4170"/><rect x="241.08" y="253.47" width="166.03" height="166.03" rx="48.61" style="fill:none;stroke:#ae4170;stroke-miterlimit:10;stroke-width:12px"/><path d="M930.39,160.35" transform="translate(-689.31 -160)"/><path d="M930.39,768.1" transform="translate(-689.31 -160)" style="fill:#f06d99"/><path d="M1129.76,169" transform="translate(-689.31 -160)"/><path d="M1028.14,384.08" transform="translate(-689.31 -160)"/><polyline points="247.47 336.93 165.62 336.93 165.62 165.04" style="fill:none;stroke:#ae4170;stroke-miterlimit:10;stroke-width:7px"/><path d="M1235.31,496.48" transform="translate(-689.31 -160)" style="fill:none;stroke:#000;stroke-miterlimit:10"/><path d="M1026.73,801.29v-7.55a27.88,27.88,0,0,0-27.88-27.88H952.52a27.88,27.88,0,0,1-24.27-41.6L936.88,709a27.88,27.88,0,0,1,24.27-14.16h195.21a27.88,27.88,0,0,0,27.88-27.88v-9.1A27.88,27.88,0,0,0,1156.36,630H776.09a27.87,27.87,0,0,1-27.87-27.32l-2-99a27.89,27.89,0,0,0-27.88-27.32h0a29,29,0,0,0-29,29V666.94a27.88,27.88,0,0,0,27.88,27.88H827.13a27.88,27.88,0,0,1,23.38,43.07L819.2,786.1c-12.05,18.55,1.27,43.07,23.38,43.07H998.85A27.88,27.88,0,0,0,1026.73,801.29Z" transform="translate(-689.31 -160)" style="fill:#ae4170"/><path d="M880.6,363.7" transform="translate(-689.31 -160)"/><path d="M1080,372.37" transform="translate(-689.31 -160)"/><polyline points="408.41 332.24 490.25 332.24 490.25 504.13" style="fill:none;stroke:#ae4170;stroke-miterlimit:10;stroke-width:7px"/></svg>